<?xml version="1.0" encoding="utf-8"?>
<!-- Generator: Adobe Illustrator 21.1.0, SVG Export Plug-In . SVG Version: 6.00 Build 0)  -->
<svg version="1.1" id="Layer_1" xmlns="http://www.w3.org/2000/svg" xmlns:xlink="http://www.w3.org/1999/xlink" x="0px" y="0px"
	 viewBox="0 0 150 50" style="enable-background:new 0 0 150 50;" xml:space="preserve">
<style type="text/css">
	.st0{fill:#231F20;}
	.st1{fill:#7DD82E;}
</style>
<polygon class="st0" points="57.3,34.7 60.4,34.7 60.4,27.6 67.8,27.6 67.8,25 60.4,25 60.4,21.3 67.9,21.3 67.9,18.6 57.3,18.6 "/>
<g>
	<path class="st0" d="M83.9,20.7c-0.8-0.8-1.7-1.4-2.7-1.8c-1-0.4-2.1-0.6-3.3-0.6c-1.2,0-2.3,0.2-3.3,0.6c-1,0.4-1.9,1-2.7,1.8
		c-0.8,0.8-1.4,1.6-1.8,2.7c-0.4,1-0.7,2.1-0.7,3.3c0,1.2,0.2,2.3,0.7,3.3c0.4,1,1.1,1.9,1.8,2.6c0.8,0.8,1.7,1.3,2.7,1.8
		c1,0.4,2.1,0.7,3.3,0.7c1.2,0,2.3-0.2,3.3-0.7c1-0.4,1.9-1,2.7-1.8c0.8-0.8,1.4-1.6,1.8-2.7c0.4-1,0.7-2.1,0.7-3.3
		c0-1.2-0.2-2.3-0.7-3.3C85.3,22.4,84.7,21.5,83.9,20.7 M82.9,28.7c-0.3,0.7-0.7,1.2-1.2,1.7c-0.5,0.5-1.1,0.9-1.7,1.2
		c-0.7,0.3-1.4,0.4-2.1,0.4c-0.8,0-1.5-0.1-2.1-0.4c-0.7-0.3-1.2-0.7-1.7-1.2c-0.5-0.5-0.9-1.1-1.2-1.7c-0.3-0.7-0.4-1.3-0.4-2.1
		c0-0.7,0.1-1.4,0.4-2.1c0.3-0.7,0.7-1.2,1.2-1.7c0.5-0.5,1.1-0.9,1.7-1.2c0.7-0.3,1.4-0.4,2.1-0.4c0.7,0,1.4,0.1,2.1,0.4
		c0.7,0.3,1.2,0.7,1.7,1.2c0.5,0.5,0.9,1.1,1.2,1.7c0.3,0.7,0.4,1.3,0.4,2.1C83.3,27.4,83.2,28.1,82.9,28.7"/>
	<path class="st0" d="M102.8,20.7c-0.8-0.8-1.7-1.4-2.7-1.8c-1-0.4-2.1-0.6-3.3-0.6c-1.2,0-2.3,0.2-3.3,0.6c-1,0.4-1.9,1-2.7,1.8
		c-0.8,0.8-1.4,1.6-1.8,2.7c-0.5,1-0.7,2.1-0.7,3.3c0,1.2,0.2,2.3,0.7,3.3c0.4,1,1.1,1.9,1.8,2.6c0.8,0.8,1.7,1.3,2.7,1.8
		c1,0.4,2.1,0.7,3.3,0.7c1.2,0,2.3-0.2,3.3-0.7c1-0.4,1.9-1,2.7-1.8c0.8-0.8,1.4-1.6,1.8-2.7c0.4-1,0.7-2.1,0.7-3.3
		c0-1.2-0.2-2.3-0.7-3.3C104.2,22.4,103.6,21.5,102.8,20.7 M101.8,28.7c-0.3,0.7-0.7,1.2-1.2,1.7c-0.5,0.5-1.1,0.9-1.7,1.2
		c-0.7,0.3-1.4,0.4-2.1,0.4c-0.8,0-1.5-0.1-2.1-0.4c-0.7-0.3-1.2-0.7-1.7-1.2c-0.5-0.5-0.9-1.1-1.2-1.7c-0.3-0.7-0.4-1.3-0.4-2.1
		c0-0.7,0.1-1.4,0.4-2.1c0.3-0.7,0.7-1.2,1.2-1.7c0.5-0.5,1.1-0.9,1.7-1.2c0.7-0.3,1.4-0.4,2.1-0.4c0.7,0,1.4,0.1,2.1,0.4
		c0.7,0.3,1.2,0.7,1.7,1.2c0.5,0.5,0.9,1.1,1.2,1.7c0.3,0.7,0.4,1.3,0.4,2.1C102.2,27.4,102.1,28.1,101.8,28.7"/>
	<path class="st0" d="M119.9,21c-0.7-0.7-1.5-1.3-2.4-1.7c-0.9-0.4-2-0.6-3.1-0.6h-6.7v16.1h6.7c1.1,0,2.1-0.2,3.1-0.6
		c0.9-0.4,1.7-1,2.4-1.7c0.7-0.7,1.2-1.6,1.6-2.6c0.4-1,0.6-2,0.6-3.1c0-1.1-0.2-2.1-0.6-3.1C121.1,22.5,120.6,21.7,119.9,21
		 M118.5,28.7c-0.2,0.7-0.6,1.2-1.1,1.7c-0.5,0.5-1,0.9-1.7,1.1c-0.7,0.3-1.4,0.4-2.2,0.4h-2.7V21h2.7c0.8,0,1.6,0.1,2.2,0.4
		c0.7,0.3,1.2,0.7,1.7,1.2c0.5,0.5,0.8,1.1,1,1.8c0.2,0.7,0.4,1.4,0.3,2.1C118.9,27.4,118.8,28.1,118.5,28.7"/>
	<path class="st0" d="M134.2,27.4c-0.4-0.4-0.8-0.8-1.4-1.1c-0.6-0.3-1.3-0.6-2.1-0.9c-0.6-0.2-1.2-0.4-1.6-0.6
		c-0.4-0.2-0.8-0.4-1-0.6c-0.3-0.2-0.4-0.4-0.5-0.6c-0.1-0.2-0.2-0.4-0.2-0.7c0-0.2,0.1-0.4,0.2-0.7c0.1-0.2,0.3-0.4,0.5-0.5
		c0.2-0.2,0.4-0.3,0.7-0.4c0.3-0.1,0.5-0.1,0.9-0.1c0.7,0,1.3,0.1,1.8,0.3c0.5,0.2,0.9,0.5,1.3,0.9l2.2-2.2
		c-0.7-0.6-1.4-1.1-2.3-1.4c-0.8-0.3-1.9-0.5-3.1-0.5c-0.7,0-1.4,0.1-2.1,0.3c-0.6,0.2-1.2,0.5-1.7,1c-0.5,0.4-0.9,0.9-1.1,1.5
		c-0.3,0.6-0.4,1.2-0.4,1.9c0,0.7,0.1,1.3,0.4,1.9c0.2,0.5,0.6,1,1,1.4c0.4,0.4,0.9,0.7,1.4,1c0.5,0.3,1.1,0.5,1.7,0.7
		c0.7,0.2,1.2,0.5,1.7,0.7c0.4,0.2,0.8,0.4,1,0.6c0.2,0.2,0.4,0.4,0.5,0.6c0.1,0.2,0.1,0.4,0.1,0.7c0,0.2-0.1,0.5-0.2,0.7
		c-0.1,0.2-0.3,0.4-0.5,0.5c-0.2,0.1-0.4,0.3-0.7,0.4c-0.3,0.1-0.5,0.1-0.8,0.1c-0.7,0-1.4-0.1-2-0.3c-0.6-0.2-1.2-0.6-1.9-1.1
		l-2.2,2.2c0.5,0.4,0.9,0.7,1.4,1c0.4,0.3,0.9,0.5,1.4,0.7c0.5,0.2,1,0.3,1.6,0.4c0.6,0.1,1.2,0.1,1.9,0.1c0.8,0,1.5-0.1,2.1-0.4
		c0.6-0.2,1.2-0.6,1.7-1c0.5-0.4,0.8-0.9,1.1-1.4c0.3-0.5,0.4-1.1,0.4-1.7c0-0.6-0.1-1.2-0.3-1.7C134.8,28.3,134.5,27.8,134.2,27.4"
		/>
	<rect x="137.5" y="18.6" class="st0" width="3.1" height="16.1"/>
	<polygon class="st1" points="144.4,11.8 140.1,11.8 137.6,17.1 140.5,17.1 	"/>
	<path class="st1" d="M42.5,34V19.2c0-2-1-3.8-2.7-4.8c-3.4-2-9.3-5.4-12.8-7.4C26.9,7,26.8,7,26.7,6.9c-0.1,0-0.1-0.1-0.2-0.1
		c-0.1,0-0.1,0-0.2-0.1c-0.1,0-0.2-0.1-0.2-0.1c0,0-0.1,0-0.1,0c-0.1,0-0.2-0.1-0.3-0.1c0,0,0,0-0.1,0c-0.1,0-0.2-0.1-0.3-0.1
		c0,0,0,0,0,0c-0.1,0-0.2,0-0.3-0.1h0c-0.2,0-0.5,0-0.7,0h0v0c0,0,0,0-0.1,0c0,0,0,0-0.1,0v0c-0.9,0-1.9,0.2-2.7,0.7
		c-3.4,2-9.3,5.4-12.8,7.4C7,15.5,6,17.3,6,19.2V34c0,2,1,3.8,2.7,4.8c3.1,1.8,7.9,4.5,7.9,4.5c1.4,0.8,3.8,2,4.4,1.7
		c1.5-0.7,2.2-5.7,2.5-10c0-0.8,0.1-1.5,0.1-2.2c0.1-1.3,0.2-2.4,0.1-3.1c0-0.2-0.2-0.3-0.3-0.5c-0.2-0.2-0.4-0.5-0.7-0.7
		c-0.6-0.6-1.1-1.4-1.3-2.2c-0.1-0.4-0.1-0.8-0.1-1.3c0-1.1,0.2-2.1,0.4-3.2c0.1-0.7,0.2-1.4,0.3-2.2c0.1-0.7,0.2-1.4,0.4-2.1
		c0-0.1,0-0.1,0.1-0.2c0,0,0.1,0,0.1,0c0.1,0,0.1,0.2,0.1,0.2c0,0.1,0,0.2,0,0.3v4.7v1.1v0.3c0,0.2,0.1,0.3,0.3,0.3s0.3-0.1,0.3-0.3
		c0,0,0-1.7,0-2.3c0-0.7,0.1-2,0.2-2.6c0-0.5,0-1.3,0.2-1.6c0-0.1,0.1-0.1,0.1,0c0.2,0.1,0.1,1.3,0.1,1.6c0,0.2,0,0.8,0,1.1
		c0,0.5,0,1.7,0,1.9l0,1.9c0,0.2,0.1,0.3,0.3,0.3c0.1,0,0.3-0.1,0.3-0.3l0-1.9c0-0.3,0-1.4,0-1.9c0-0.3,0-0.9,0-1.1
		c0-0.3,0-1.5,0.1-1.6c0,0,0.1,0,0.1,0c0.1,0.3,0.2,1.1,0.2,1.6c0,0.6,0.1,1.9,0.2,2.6c0,0.6,0,2.3,0,2.3c0,0.2,0.1,0.3,0.3,0.3
		c0.2,0,0.3-0.1,0.3-0.3v-0.3v-1.1v-4.7c0-0.2,0-0.2,0-0.3c0,0,0-0.2,0.1-0.2c0,0,0.1,0,0.1,0c0.1,0,0.1,0.1,0.1,0.2
		c0.1,0.7,0.2,1.4,0.4,2.1c0.1,0.7,0.2,1.4,0.3,2.2c0.2,1.1,0.4,2.1,0.4,3.2c0,0.4,0,0.8-0.1,1.3c-0.2,0.9-0.6,1.7-1.3,2.2
		c-0.2,0.2-0.4,0.5-0.7,0.7c-0.1,0.1-0.2,0.3-0.3,0.5c-0.1,0.7,0,1.8,0.1,3.1c0,0.7,0.1,1.4,0.1,2.2c0.3,4.3,0.9,9.3,2.5,10
		c0.7,0.3,3-0.8,4.4-1.7c0,0,4.7-2.7,7.9-4.5C41.4,37.7,42.5,35.9,42.5,34"/>
</g>
</svg>
