<?xml version="1.0" encoding="UTF-8" standalone="no"?>
<!-- Created with Inkscape (http://www.inkscape.org/) -->

<svg
   xmlns:dc="http://purl.org/dc/elements/1.1/"
   xmlns:cc="http://creativecommons.org/ns#"
   xmlns:rdf="http://www.w3.org/1999/02/22-rdf-syntax-ns#"
   xmlns:svg="http://www.w3.org/2000/svg"
   xmlns="http://www.w3.org/2000/svg"
   xmlns:inkscape="http://www.inkscape.org/namespaces/inkscape"
   version="1.1"
   width="187.5"
   height="62.5"
   id="svg2"
   xml:space="preserve"><metadata
     id="metadata8"><rdf:RDF><cc:Work
         rdf:about=""><dc:format>image/svg+xml</dc:format><dc:type
           rdf:resource="http://purl.org/dc/dcmitype/StillImage" /></cc:Work></rdf:RDF></metadata><defs
     id="defs6"><clipPath
       id="clipPath20"><path
         d="M 0,50 150,50 150,0 0,0 0,50 z"
         inkscape:connector-curvature="0"
         id="path22" /></clipPath></defs><g
     transform="matrix(1.25,0,0,-1.25,0,62.5)"
     id="g10"><g
       transform="translate(57.3091,15.3018)"
       id="g12"><path
         d="m 0,0 3.06,0 0,7.127 7.47,0 0,2.537 -7.47,0 0,3.744 7.57,0 0,2.679 L 0,16.087 0,0 z"
         inkscape:connector-curvature="0"
         id="path14"
         style="fill:#ffffff;fill-opacity:1;fill-rule:nonzero;stroke:none" /></g><g
       id="g16"><g
         clip-path="url(#clipPath20)"
         id="g18"><g
           transform="translate(82.8774,21.2813)"
           id="g24"><path
             d="m 0,0 c -0.283,-0.657 -0.669,-1.229 -1.16,-1.721 -0.491,-0.49 -1.066,-0.88 -1.725,-1.169 -0.658,-0.288 -1.358,-0.432 -2.097,-0.432 -0.753,0 -1.46,0.144 -2.118,0.432 -0.659,0.289 -1.234,0.679 -1.725,1.169 -0.49,0.492 -0.877,1.064 -1.159,1.721 -0.283,0.657 -0.424,1.349 -0.424,2.073 0,0.74 0.141,1.433 0.424,2.084 0.282,0.652 0.669,1.222 1.159,1.712 0.491,0.489 1.066,0.879 1.725,1.167 0.658,0.289 1.365,0.434 2.118,0.434 0.739,0 1.439,-0.145 2.097,-0.434 C -2.226,6.748 -1.651,6.358 -1.16,5.869 -0.669,5.379 -0.283,4.809 0,4.157 0.282,3.506 0.423,2.813 0.423,2.073 0.423,1.349 0.282,0.657 0,0 m 1.03,8.003 c -0.778,0.758 -1.682,1.352 -2.715,1.782 -1.032,0.429 -2.131,0.644 -3.297,0.644 -1.167,0 -2.269,-0.215 -3.309,-0.644 -1.039,-0.43 -1.947,-1.02 -2.725,-1.772 -0.777,-0.751 -1.39,-1.638 -1.839,-2.658 -0.45,-1.02 -0.674,-2.114 -0.674,-3.282 0,-1.167 0.224,-2.258 0.674,-3.271 0.449,-1.013 1.062,-1.896 1.839,-2.648 0.778,-0.752 1.686,-1.345 2.725,-1.781 1.04,-0.435 2.142,-0.654 3.309,-0.654 1.166,0 2.265,0.219 3.297,0.654 1.033,0.436 1.937,1.029 2.715,1.781 0.778,0.752 1.391,1.638 1.84,2.659 0.449,1.019 0.674,2.106 0.674,3.26 0,1.168 -0.225,2.259 -0.674,3.273 C 2.421,6.358 1.808,7.245 1.03,8.003"
             inkscape:connector-curvature="0"
             id="path26"
             style="fill:#ffffff;fill-opacity:1;fill-rule:nonzero;stroke:none" /></g><g
           transform="translate(101.7813,21.2813)"
           id="g28"><path
             d="m 0,0 c -0.282,-0.657 -0.669,-1.229 -1.16,-1.721 -0.489,-0.49 -1.066,-0.88 -1.724,-1.169 -0.658,-0.288 -1.358,-0.432 -2.097,-0.432 -0.753,0 -1.459,0.144 -2.119,0.432 -0.659,0.289 -1.233,0.679 -1.725,1.169 -0.489,0.492 -0.877,1.064 -1.158,1.721 -0.284,0.657 -0.425,1.349 -0.425,2.073 0,0.74 0.141,1.433 0.425,2.084 0.281,0.652 0.669,1.222 1.158,1.712 0.492,0.489 1.066,0.879 1.725,1.167 0.66,0.289 1.366,0.434 2.119,0.434 0.739,0 1.439,-0.145 2.097,-0.434 C -2.226,6.748 -1.649,6.358 -1.16,5.869 -0.669,5.379 -0.282,4.809 0,4.157 0.283,3.506 0.425,2.813 0.425,2.073 0.425,1.349 0.283,0.657 0,0 m 1.031,8.003 c -0.777,0.758 -1.682,1.352 -2.715,1.782 -1.033,0.429 -2.13,0.644 -3.297,0.644 -1.166,0 -2.269,-0.215 -3.309,-0.644 -1.039,-0.43 -1.946,-1.02 -2.725,-1.772 -0.777,-0.751 -1.391,-1.638 -1.839,-2.658 -0.45,-1.02 -0.673,-2.114 -0.673,-3.282 0,-1.167 0.223,-2.258 0.673,-3.271 0.448,-1.013 1.062,-1.896 1.839,-2.648 0.779,-0.752 1.686,-1.345 2.725,-1.781 1.04,-0.435 2.143,-0.654 3.309,-0.654 1.167,0 2.264,0.219 3.297,0.654 1.033,0.436 1.938,1.029 2.715,1.781 0.778,0.752 1.391,1.638 1.84,2.659 0.449,1.019 0.674,2.106 0.674,3.26 0,1.168 -0.225,2.259 -0.674,3.273 -0.449,1.012 -1.062,1.899 -1.84,2.657"
             inkscape:connector-curvature="0"
             id="path30"
             style="fill:#ffffff;fill-opacity:1;fill-rule:nonzero;stroke:none" /></g><g
           transform="translate(118.5234,21.251)"
           id="g32"><path
             d="m 0,0 c -0.249,-0.664 -0.601,-1.241 -1.057,-1.731 -0.457,-0.491 -1.009,-0.873 -1.662,-1.148 -0.65,-0.275 -1.385,-0.413 -2.203,-0.413 l -2.719,0 0,10.993 2.719,0 c 0.831,0 1.58,-0.144 2.244,-0.432 C -2.013,6.979 -1.453,6.584 -0.996,6.08 -0.54,5.577 -0.191,4.989 0.05,4.319 0.292,3.647 0.406,2.936 0.393,2.185 0.379,1.393 0.248,0.664 0,0 m 1.419,7.781 c -0.671,0.725 -1.473,1.302 -2.405,1.732 -0.933,0.429 -1.952,0.644 -3.051,0.644 l -6.725,0 0,-16.106 6.725,0 c 1.099,0 2.118,0.211 3.051,0.635 0.932,0.421 1.734,0.999 2.405,1.73 0.671,0.731 1.195,1.584 1.571,2.558 0.375,0.972 0.564,2.016 0.564,3.13 0,1.1 -0.189,2.141 -0.564,3.121 -0.376,0.979 -0.9,1.832 -1.571,2.556"
             inkscape:connector-curvature="0"
             id="path34"
             style="fill:#ffffff;fill-opacity:1;fill-rule:nonzero;stroke:none" /></g><g
           transform="translate(134.1768,22.5898)"
           id="g36"><path
             d="m 0,0 c -0.362,0.402 -0.832,0.771 -1.409,1.107 -0.577,0.336 -1.269,0.645 -2.073,0.926 -0.632,0.229 -1.159,0.44 -1.58,0.635 -0.424,0.194 -0.763,0.389 -1.018,0.584 -0.256,0.194 -0.437,0.394 -0.544,0.602 -0.107,0.208 -0.16,0.441 -0.16,0.697 0,0.227 0.055,0.445 0.171,0.654 0.113,0.207 0.264,0.389 0.452,0.543 0.188,0.154 0.413,0.278 0.675,0.372 0.261,0.094 0.549,0.142 0.855,0.142 0.671,0 1.255,-0.105 1.752,-0.313 0.496,-0.208 0.946,-0.507 1.349,-0.895 L 0.646,7.248 C -0.014,7.865 -0.766,8.336 -1.61,8.657 -2.456,8.979 -3.497,9.141 -4.731,9.141 -5.47,9.141 -6.157,9.026 -6.795,8.799 -7.433,8.57 -7.989,8.251 -8.466,7.842 -8.942,7.433 -9.318,6.937 -9.594,6.362 -9.868,5.785 -10.006,5.154 -10.006,4.47 c 0,-0.711 0.124,-1.329 0.372,-1.853 0.248,-0.523 0.577,-0.979 0.988,-1.369 0.408,-0.39 0.885,-0.721 1.428,-0.996 0.544,-0.275 1.111,-0.523 1.701,-0.735 0.671,-0.242 1.222,-0.46 1.652,-0.655 0.429,-0.194 0.764,-0.385 1.006,-0.573 0.242,-0.188 0.409,-0.383 0.505,-0.584 0.092,-0.201 0.139,-0.43 0.139,-0.684 0,-0.242 -0.056,-0.463 -0.171,-0.667 -0.114,-0.2 -0.268,-0.375 -0.463,-0.521 -0.194,-0.148 -0.422,-0.266 -0.684,-0.354 -0.262,-0.086 -0.54,-0.129 -0.836,-0.129 -0.725,0 -1.396,0.11 -2.013,0.332 -0.618,0.221 -1.249,0.6 -1.892,1.137 l -2.215,-2.235 c 0.483,-0.389 0.949,-0.722 1.399,-0.996 0.449,-0.275 0.919,-0.5 1.409,-0.675 0.49,-0.174 1.014,-0.302 1.571,-0.382 0.556,-0.081 1.184,-0.121 1.881,-0.121 0.779,0 1.491,0.124 2.135,0.372 0.645,0.248 1.201,0.58 1.671,0.997 0.47,0.416 0.836,0.896 1.098,1.44 0.262,0.543 0.392,1.117 0.392,1.721 0,0.63 -0.088,1.198 -0.262,1.701 C 0.631,-0.855 0.362,-0.402 0,0"
             inkscape:connector-curvature="0"
             id="path38"
             style="fill:#ffffff;fill-opacity:1;fill-rule:nonzero;stroke:none" /></g><path
           d="m 137.458,15.302 3.121,0 0,16.087 -3.121,0 0,-16.087 z"
           inkscape:connector-curvature="0"
           id="path40"
           style="fill:#ffffff;fill-opacity:1;fill-rule:nonzero;stroke:none" /><g
           transform="translate(144.4414,38.1611)"
           id="g42"><path
             d="m 0,0 -4.386,0 -2.467,-5.29 2.906,0 L 0,0 z"
             inkscape:connector-curvature="0"
             id="path44"
             style="fill:#7dd82e;fill-opacity:1;fill-rule:nonzero;stroke:none" /></g><g
           transform="translate(42.4849,16.0342)"
           id="g46"><path
             d="m 0,0 0,14.729 c 0,1.965 -1.048,3.78 -2.75,4.762 -3.444,1.988 -9.311,5.376 -12.756,7.364 -0.106,0.062 -0.213,0.12 -0.323,0.172 -0.055,0.029 -0.111,0.052 -0.168,0.077 -0.053,0.024 -0.105,0.049 -0.159,0.072 -0.077,0.032 -0.156,0.06 -0.237,0.089 -0.031,0.01 -0.063,0.023 -0.094,0.035 -0.094,0.032 -0.189,0.059 -0.284,0.086 -0.018,0.005 -0.035,0.01 -0.052,0.015 -0.106,0.028 -0.212,0.053 -0.318,0.075 -0.007,0.001 -0.014,0.003 -0.022,0.004 -0.112,0.024 -0.226,0.042 -0.34,0.058 l -0.001,0 c -0.232,0.031 -0.464,0.048 -0.697,0.05 l -0.001,0 0,0.003 c -0.017,0 -0.035,-0.001 -0.054,-0.001 -0.018,0 -0.036,0.001 -0.055,0.001 l 0,-0.003 c -0.93,-0.008 -1.86,-0.25 -2.694,-0.733 -3.446,-1.988 -9.312,-5.376 -12.757,-7.364 -1.701,-0.982 -2.749,-2.797 -2.749,-4.762 l 0,-14.729 c 0,-1.965 1.048,-3.78 2.749,-4.762 3.143,-1.814 7.858,-4.537 7.858,-4.537 1.424,-0.822 3.769,-1.965 4.425,-1.667 1.548,0.702 2.206,5.725 2.485,9.985 0.048,0.76 0.087,1.496 0.116,2.178 0.053,1.274 0.212,2.373 0.083,3.076 -0.033,0.177 -0.153,0.327 -0.279,0.459 -0.22,0.229 -0.434,0.46 -0.66,0.684 -0.637,0.599 -1.09,1.394 -1.267,2.25 -0.093,0.414 -0.107,0.84 -0.098,1.26 0.043,1.083 0.237,2.148 0.406,3.214 0.117,0.722 0.228,1.444 0.345,2.168 0.106,0.694 0.24,1.384 0.354,2.076 0.006,0.066 0.031,0.14 0.088,0.169 0.02,0.008 0.068,0.009 0.087,0 0.05,-0.031 0.065,-0.162 0.067,-0.206 0.003,-0.087 0.015,-0.162 0.017,-0.315 l 0,-4.652 0,-1.075 0,-0.276 c 0,-0.156 0.128,-0.284 0.284,-0.284 0.156,0 0.283,0.128 0.283,0.284 0,0 -0.018,1.723 0,2.298 0.021,0.651 0.113,1.951 0.154,2.601 0.034,0.525 0.049,1.268 0.184,1.594 0.023,0.055 0.094,0.075 0.141,0.037 0.154,-0.128 0.136,-1.261 0.147,-1.603 0.007,-0.235 0.023,-0.826 0.025,-1.1 0.005,-0.48 -0.011,-1.653 -0.006,-1.918 l -0.004,-1.914 c 0,-0.154 0.119,-0.281 0.264,-0.284 0.148,0 0.277,0.128 0.277,0.284 l -0.003,1.914 c 0.005,0.265 -0.011,1.438 -0.008,1.918 0.003,0.274 0.019,0.865 0.027,1.1 0.011,0.342 -0.008,1.475 0.147,1.603 0.046,0.038 0.117,0.018 0.14,-0.037 0.136,-0.326 0.151,-1.069 0.184,-1.594 0.041,-0.65 0.134,-1.95 0.154,-2.601 0.018,-0.575 0,-2.298 0,-2.298 0,-0.156 0.127,-0.284 0.283,-0.284 0.157,0 0.285,0.128 0.285,0.284 l 0,0.276 0,1.075 0,4.652 c 0.002,0.153 0.012,0.228 0.017,0.315 0.002,0.044 0.015,0.175 0.067,0.206 0.018,0.009 0.066,0.008 0.086,0 0.058,-0.029 0.082,-0.103 0.088,-0.169 0.115,-0.692 0.248,-1.382 0.354,-2.076 0.117,-0.724 0.229,-1.446 0.346,-2.168 0.169,-1.066 0.362,-2.131 0.406,-3.214 0.008,-0.42 -0.006,-0.846 -0.098,-1.26 -0.177,-0.856 -0.631,-1.651 -1.268,-2.25 -0.225,-0.224 -0.439,-0.455 -0.659,-0.684 -0.125,-0.131 -0.245,-0.279 -0.277,-0.455 -0.131,-0.703 0.029,-1.804 0.082,-3.08 0.029,-0.682 0.066,-1.418 0.117,-2.178 0.278,-4.26 0.936,-9.283 2.484,-9.985 0.657,-0.298 3.001,0.845 4.425,1.667 0,0 4.714,2.723 7.857,4.537 C -1.048,-3.78 0,-1.965 0,0"
             inkscape:connector-curvature="0"
             id="path48"
             style="fill:#7dd82e;fill-opacity:1;fill-rule:nonzero;stroke:none" /></g></g></g></g></svg>